<mxfile host="app.diagrams.net" agent="Mozilla/5.0 (Windows NT 10.0; Win64; x64) AppleWebKit/537.36 (KHTML, like Gecko) Chrome/131.0.0.0 Safari/537.36 Edg/131.0.0.0" version="25.0.1">
  <diagram name="Page-1" id="V2dblSqPncVtTniJ_kZn">
    <mxGraphModel dx="634" dy="403" grid="1" gridSize="10" guides="1" tooltips="1" connect="1" arrows="1" fold="1" page="1" pageScale="1" pageWidth="1169" pageHeight="827" math="0" shadow="0">
      <root>
        <mxCell id="0" />
        <mxCell id="1" parent="0" />
        <mxCell id="s8Oyc5VECCHKuRnY4R---21" value="" style="endArrow=none;html=1;rounded=0;exitX=0;exitY=0;exitDx=0;exitDy=18.75;exitPerimeter=0;" edge="1" parent="1" source="s8Oyc5VECCHKuRnY4R---19">
          <mxGeometry width="50" height="50" relative="1" as="geometry">
            <mxPoint x="400" y="70" as="sourcePoint" />
            <mxPoint x="410" y="120" as="targetPoint" />
            <Array as="points">
              <mxPoint x="390" y="30" />
            </Array>
          </mxGeometry>
        </mxCell>
        <mxCell id="s8Oyc5VECCHKuRnY4R---1" value="" style="endArrow=none;html=1;rounded=0;strokeWidth=3;" edge="1" parent="1">
          <mxGeometry width="50" height="50" relative="1" as="geometry">
            <mxPoint x="360" y="360" as="sourcePoint" />
            <mxPoint x="360" y="60" as="targetPoint" />
          </mxGeometry>
        </mxCell>
        <mxCell id="s8Oyc5VECCHKuRnY4R---2" value="" style="endArrow=none;html=1;rounded=0;" edge="1" parent="1">
          <mxGeometry width="50" height="50" relative="1" as="geometry">
            <mxPoint x="340" y="360" as="sourcePoint" />
            <mxPoint x="380" y="360" as="targetPoint" />
          </mxGeometry>
        </mxCell>
        <mxCell id="s8Oyc5VECCHKuRnY4R---5" value="" style="endArrow=none;html=1;rounded=0;" edge="1" parent="1">
          <mxGeometry width="50" height="50" relative="1" as="geometry">
            <mxPoint x="340" y="60" as="sourcePoint" />
            <mxPoint x="380" y="60" as="targetPoint" />
          </mxGeometry>
        </mxCell>
        <mxCell id="s8Oyc5VECCHKuRnY4R---13" value="" style="rounded=0;whiteSpace=wrap;html=1;movable=1;resizable=1;rotatable=1;deletable=1;editable=1;locked=0;connectable=1;" vertex="1" parent="1">
          <mxGeometry x="340" y="150" width="40" height="60" as="geometry" />
        </mxCell>
        <mxCell id="s8Oyc5VECCHKuRnY4R---14" value="" style="shape=umlActor;verticalLabelPosition=bottom;verticalAlign=top;html=1;outlineConnect=0;movable=1;resizable=1;rotatable=1;deletable=1;editable=1;locked=0;connectable=1;" vertex="1" parent="1">
          <mxGeometry x="355" y="190" width="10" height="20" as="geometry" />
        </mxCell>
        <mxCell id="s8Oyc5VECCHKuRnY4R---19" value="" style="shape=cylinder3;whiteSpace=wrap;html=1;boundedLbl=1;backgroundOutline=1;size=15;rotation=90;" vertex="1" parent="1">
          <mxGeometry x="355" y="10" width="32.5" height="45" as="geometry" />
        </mxCell>
        <mxCell id="s8Oyc5VECCHKuRnY4R---20" value="" style="endArrow=none;html=1;rounded=0;exitX=0.25;exitY=0;exitDx=0;exitDy=0;entryX=0.5;entryY=1;entryDx=0;entryDy=0;entryPerimeter=0;" edge="1" parent="1" source="s8Oyc5VECCHKuRnY4R---13" target="s8Oyc5VECCHKuRnY4R---19">
          <mxGeometry width="50" height="50" relative="1" as="geometry">
            <mxPoint x="280" y="120" as="sourcePoint" />
            <mxPoint x="350" y="50" as="targetPoint" />
          </mxGeometry>
        </mxCell>
        <mxCell id="s8Oyc5VECCHKuRnY4R---24" value="" style="ellipse;whiteSpace=wrap;html=1;aspect=fixed;" vertex="1" parent="1">
          <mxGeometry x="410" y="110" width="20" height="20" as="geometry" />
        </mxCell>
        <mxCell id="s8Oyc5VECCHKuRnY4R---25" value="" style="endArrow=none;html=1;rounded=0;entryX=0;entryY=0;entryDx=0;entryDy=0;" edge="1" parent="1" target="s8Oyc5VECCHKuRnY4R---27">
          <mxGeometry width="50" height="50" relative="1" as="geometry">
            <mxPoint x="430" y="120" as="sourcePoint" />
            <mxPoint x="450" y="40" as="targetPoint" />
          </mxGeometry>
        </mxCell>
        <mxCell id="s8Oyc5VECCHKuRnY4R---28" value="" style="endArrow=none;html=1;rounded=0;entryX=1;entryY=0.5;entryDx=0;entryDy=0;" edge="1" parent="1" target="s8Oyc5VECCHKuRnY4R---27">
          <mxGeometry width="50" height="50" relative="1" as="geometry">
            <mxPoint x="470" y="120" as="sourcePoint" />
            <mxPoint x="500" y="50" as="targetPoint" />
          </mxGeometry>
        </mxCell>
        <mxCell id="s8Oyc5VECCHKuRnY4R---27" value="" style="ellipse;whiteSpace=wrap;html=1;aspect=fixed;" vertex="1" parent="1">
          <mxGeometry x="450" y="35" width="20" height="20" as="geometry" />
        </mxCell>
        <mxCell id="s8Oyc5VECCHKuRnY4R---29" value="&lt;font style=&quot;font-size: 4px;&quot; face=&quot;Times New Roman&quot;&gt;Counterweight&lt;/font&gt;" style="rounded=0;whiteSpace=wrap;html=1;align=center;horizontal=0;verticalAlign=bottom;fontStyle=3" vertex="1" parent="1">
          <mxGeometry x="460" y="120" width="20" height="30" as="geometry" />
        </mxCell>
        <mxCell id="s8Oyc5VECCHKuRnY4R---31" style="edgeStyle=orthogonalEdgeStyle;rounded=0;orthogonalLoop=1;jettySize=auto;html=1;exitX=1;exitY=0.5;exitDx=0;exitDy=0;" edge="1" parent="1" source="s8Oyc5VECCHKuRnY4R---30" target="s8Oyc5VECCHKuRnY4R---19">
          <mxGeometry relative="1" as="geometry" />
        </mxCell>
        <mxCell id="s8Oyc5VECCHKuRnY4R---30" value="&lt;font face=&quot;Times New Roman&quot;&gt;Controller boxes&lt;/font&gt;" style="rounded=0;whiteSpace=wrap;html=1;" vertex="1" parent="1">
          <mxGeometry x="260" y="15" width="60" height="35" as="geometry" />
        </mxCell>
        <mxCell id="s8Oyc5VECCHKuRnY4R---36" value="" style="endArrow=none;html=1;rounded=0;strokeWidth=3;" edge="1" parent="1">
          <mxGeometry width="50" height="50" relative="1" as="geometry">
            <mxPoint x="280" y="360" as="sourcePoint" />
            <mxPoint x="280" y="60" as="targetPoint" />
          </mxGeometry>
        </mxCell>
        <mxCell id="s8Oyc5VECCHKuRnY4R---37" value="" style="endArrow=none;html=1;rounded=0;" edge="1" parent="1">
          <mxGeometry width="50" height="50" relative="1" as="geometry">
            <mxPoint x="260" y="60" as="sourcePoint" />
            <mxPoint x="300" y="60" as="targetPoint" />
          </mxGeometry>
        </mxCell>
        <mxCell id="s8Oyc5VECCHKuRnY4R---38" value="" style="endArrow=none;html=1;rounded=0;" edge="1" parent="1">
          <mxGeometry width="50" height="50" relative="1" as="geometry">
            <mxPoint x="260" y="360" as="sourcePoint" />
            <mxPoint x="300" y="360" as="targetPoint" />
          </mxGeometry>
        </mxCell>
        <mxCell id="s8Oyc5VECCHKuRnY4R---39" value="" style="shape=cube;whiteSpace=wrap;html=1;boundedLbl=1;backgroundOutline=1;darkOpacity=0.05;darkOpacity2=0.1;" vertex="1" parent="1">
          <mxGeometry x="250" y="150" width="30" height="60" as="geometry" />
        </mxCell>
        <mxCell id="s8Oyc5VECCHKuRnY4R---41" value="" style="shape=cube;whiteSpace=wrap;html=1;boundedLbl=1;backgroundOutline=1;darkOpacity=0.05;darkOpacity2=0.1;" vertex="1" parent="1">
          <mxGeometry x="250" y="220" width="30" height="60" as="geometry" />
        </mxCell>
        <mxCell id="s8Oyc5VECCHKuRnY4R---48" value="" style="group" vertex="1" connectable="0" parent="1">
          <mxGeometry x="279.76" y="364.88" width="80" height="49.120000000000005" as="geometry" />
        </mxCell>
        <mxCell id="s8Oyc5VECCHKuRnY4R---42" value="" style="strokeWidth=1;html=1;shape=mxgraph.flowchart.annotation_2;align=left;labelPosition=right;pointerEvents=1;rotation=-90;fontSize=2;dashed=1;" vertex="1" parent="s8Oyc5VECCHKuRnY4R---48">
          <mxGeometry x="27.560000000000002" y="-27.560000000000002" width="24.88" height="80" as="geometry" />
        </mxCell>
        <mxCell id="s8Oyc5VECCHKuRnY4R---47" value="&lt;font face=&quot;Times New Roman&quot;&gt;Hoistway&lt;/font&gt;" style="text;html=1;align=center;verticalAlign=middle;resizable=0;points=[];autosize=1;strokeColor=none;fillColor=none;" vertex="1" parent="s8Oyc5VECCHKuRnY4R---48">
          <mxGeometry x="5" y="19.120000000000005" width="70" height="30" as="geometry" />
        </mxCell>
        <mxCell id="s8Oyc5VECCHKuRnY4R---50" value="" style="endArrow=classic;html=1;rounded=0;" edge="1" parent="1">
          <mxGeometry width="50" height="50" relative="1" as="geometry">
            <mxPoint x="410" y="180" as="sourcePoint" />
            <mxPoint x="410" y="270" as="targetPoint" />
          </mxGeometry>
        </mxCell>
        <mxCell id="s8Oyc5VECCHKuRnY4R---52" value="" style="shape=cube;whiteSpace=wrap;html=1;boundedLbl=1;backgroundOutline=1;darkOpacity=0.05;darkOpacity2=0.1;" vertex="1" parent="1">
          <mxGeometry x="310" y="150" width="30" height="60" as="geometry" />
        </mxCell>
        <mxCell id="s8Oyc5VECCHKuRnY4R---59" value="&lt;font face=&quot;Times New Roman&quot;&gt;Doors&lt;/font&gt;" style="text;html=1;align=center;verticalAlign=middle;resizable=0;points=[];autosize=1;strokeColor=none;fillColor=none;rotation=0;" vertex="1" parent="1">
          <mxGeometry x="288" y="60" width="50" height="30" as="geometry" />
        </mxCell>
        <mxCell id="s8Oyc5VECCHKuRnY4R---60" style="edgeStyle=orthogonalEdgeStyle;rounded=0;orthogonalLoop=1;jettySize=auto;html=1;exitX=0;exitY=0.5;exitDx=0;exitDy=0;exitPerimeter=0;" edge="1" parent="1" source="s8Oyc5VECCHKuRnY4R---58" target="s8Oyc5VECCHKuRnY4R---59">
          <mxGeometry relative="1" as="geometry" />
        </mxCell>
        <mxCell id="s8Oyc5VECCHKuRnY4R---58" value="" style="strokeWidth=1;html=1;shape=mxgraph.flowchart.annotation_2;align=left;labelPosition=right;pointerEvents=1;rotation=-270;fontSize=2;dashed=1;" vertex="1" parent="1">
          <mxGeometry x="273" y="104" width="22.88" height="68" as="geometry" />
        </mxCell>
        <mxCell id="s8Oyc5VECCHKuRnY4R---62" value="" style="endArrow=none;dashed=1;html=1;rounded=0;" edge="1" parent="1">
          <mxGeometry width="50" height="50" relative="1" as="geometry">
            <mxPoint x="220" y="32" as="sourcePoint" />
            <mxPoint x="260" y="32.08" as="targetPoint" />
          </mxGeometry>
        </mxCell>
        <mxCell id="s8Oyc5VECCHKuRnY4R---63" value="Sensors&lt;div&gt;Signal&lt;/div&gt;" style="edgeLabel;html=1;align=center;verticalAlign=middle;resizable=0;points=[];" vertex="1" connectable="0" parent="s8Oyc5VECCHKuRnY4R---62">
          <mxGeometry x="0.3095" y="1" relative="1" as="geometry">
            <mxPoint x="-46" y="1" as="offset" />
          </mxGeometry>
        </mxCell>
      </root>
    </mxGraphModel>
  </diagram>
</mxfile>
